# xmcd
#
# Track frame offsets:
#	150
#	11933
#	23874
#	33715
#	47786
#	59356
#	74252
#	89741
#	106546
#	120351
#	137232
#	153828
#	168052
#
# Disc length: 2403 seconds
#
# Revision: 0
# Processed by: cddbd v1.5.2PL0 Copyright (c) Steve Scherf et al.
# Submitted via: EasyCDDAExtractor 11.9.9.666
#
DISCID=a809610d
DTITLE=Beatriz Berger - Intimo
DYEAR=1900
DGENRE=Tango
TTITLE0=Desencuentro
TTITLE1=Los mareados
TTITLE2=El ultimo cafe
TTITLE3=Jacinto chiclana
TTITLE4=Audacia
TTITLE5=Tabaco
TTITLE6=Che bandoneon
TTITLE7=La ultima curda
TTITLE8=Como dos extraños
TTITLE9=Loca tuca de dios
TTITLE10=Garua
TTITLE11=Sin piel
TTITLE12=Afiches
EXTD=
EXTT0=
EXTT1=
EXTT2=
EXTT3=
EXTT4=
EXTT5=
EXTT6=
EXTT7=
EXTT8=
EXTT9=
EXTT10=
EXTT11=
EXTT12=
PLAYORDER=
